<?xml version="1.0" standalone="no"?>
<!DOCTYPE svg PUBLIC "-//W3C//DTD SVG 20010904//EN"
 "http://www.w3.org/TR/2001/REC-SVG-20010904/DTD/svg10.dtd">
<svg version="1.0" xmlns="http://www.w3.org/2000/svg"
 width="100%" height="100%" viewBox="0 0 1024.000000 1024.000000"
 preserveAspectRatio="xMidYMid meet">

<g transform="translate(0.000000,1024.000000) scale(0.100000,-0.100000)"
fill="#8F8F8F" stroke="none">
<path d="M5807 8010 c-71 -11 -143 -42 -180 -78 -28 -27 -57 -104 -57 -154 0
-26 -2 -28 -43 -28 -60 0 -401 -45 -532 -70 -409 -79 -811 -270 -1134 -538
-421 -350 -717 -882 -845 -1517 -44 -222 -92 -592 -108 -849 -3 -37 -7 -42
-73 -82 -279 -168 -427 -262 -688 -436 -528 -351 -610 -419 -703 -576 -63
-109 -77 -164 -71 -281 2 -53 12 -119 21 -147 24 -78 87 -167 158 -223 169
-135 365 -191 554 -157 196 34 515 232 912 564 l113 95 77 -33 c249 -108 446
-218 827 -465 328 -212 397 -253 556 -329 162 -78 268 -116 420 -150 216 -48
402 -57 602 -31 344 45 676 188 990 427 292 223 767 695 920 915 58 84 31 75
302 92 369 23 713 89 866 167 63 31 106 86 118 148 35 176 38 772 6 1065 -47
431 -165 784 -374 1117 -108 171 -172 254 -301 387 -285 296 -570 478 -1030
660 -255 101 -384 137 -695 193 -18 3 -20 11 -20 77 0 65 -3 78 -28 111 -67
88 -174 126 -372 131 -71 2 -156 0 -188 -5z m221 -619 c264 -51 442 -148 643
-350 354 -356 519 -856 519 -1576 0 -343 -35 -720 -87 -948 -22 -98 -29 -117
-42 -111 -9 4 -205 71 -436 149 -751 252 -1188 373 -1585 439 -624 103 -1215
105 -1675 5 -49 -10 -92 -19 -95 -19 -9 0 16 223 45 395 70 415 162 699 309
948 166 283 416 540 688 709 110 68 312 168 430 212 348 130 993 204 1286 147z
m1044 -245 c470 -189 720 -380 1027 -786 134 -178 262 -476 325 -760 62 -281
89 -676 67 -1000 -7 -96 -16 -178 -20 -183 -12 -12 -237 -55 -403 -77 -161
-21 -434 -40 -579 -40 l-86 0 18 78 c64 261 99 565 106 917 18 874 -144 1421
-543 1837 -36 38 -60 68 -55 68 5 0 69 -24 143 -54z m-2462 -2451 c423 -41
808 -117 1255 -245 94 -27 240 -67 325 -89 139 -36 318 -97 810 -275 85 -31
161 -59 168 -61 16 -6 -33 -67 -215 -268 -138 -152 -333 -336 -488 -460 -196
-157 -423 -288 -617 -356 -275 -96 -572 -101 -858 -15 -188 57 -338 136 -705
372 -791 508 -1188 683 -1709 751 l-129 17 184 125 c101 69 287 194 413 277
l228 152 142 29 c121 26 273 48 431 65 84 9 617 -4 765 -19z m-1987 -1016 c42
-7 77 -15 77 -18 0 -19 -327 -259 -464 -341 -124 -75 -189 -99 -260 -100 -78
0 -128 16 -175 57 -135 115 -55 283 175 368 119 44 201 55 394 51 96 -2 210
-10 253 -17z"/>
</g>
</svg>
