<?xml version="1.0" standalone="no"?>
<!DOCTYPE svg PUBLIC "-//W3C//DTD SVG 20010904//EN"
 "http://www.w3.org/TR/2001/REC-SVG-20010904/DTD/svg10.dtd">
<svg version="1.0" xmlns="http://www.w3.org/2000/svg"
 width="512.000000pt" height="512.000000pt" viewBox="0 0 512.000000 512.000000"
 preserveAspectRatio="xMidYMid meet">

<g transform="translate(0.000000,512.000000) scale(0.100000,-0.100000)"
fill="#000000" stroke="none">
<path d="M335 4996 c-116 -37 -207 -116 -258 -224 l-32 -67 0 -2145 0 -2145
32 -67 c41 -88 113 -160 201 -201 l67 -32 1595 0 1595 0 55 26 c113 54 196
146 230 256 19 62 20 92 20 592 l0 526 481 790 c699 1149 705 1159 730 1222
27 71 37 222 19 306 -26 126 -118 260 -227 333 -100 66 -171 87 -298 88 -128
1 -205 -20 -302 -83 -88 -57 -147 -130 -278 -347 l-120 -198 -5 534 c-5 526
-5 536 -27 590 -41 99 -119 180 -223 229 l-55 26 -1580 2 c-1257 1 -1588 -1
-1620 -11z m3181 -205 c48 -22 101 -82 114 -131 6 -21 10 -300 10 -703 l0
-668 -303 -499 -302 -499 -1223 -3 -1224 -3 -24 -28 c-33 -38 -33 -96 0 -134
l24 -28 1160 -5 1159 -5 -149 -245 c-82 -135 -154 -255 -159 -267 l-9 -23
-985 0 c-1060 0 -1027 2 -1055 -49 -20 -39 -12 -91 19 -122 l29 -29 1001 0
1001 0 0 -173 c0 -96 3 -250 7 -343 6 -167 7 -169 34 -196 49 -50 62 -45 492
167 l395 196 54 90 53 90 3 -341 c1 -203 -2 -357 -8 -378 -13 -51 -65 -111
-114 -133 -39 -18 -105 -19 -1579 -19 -1396 0 -1541 1 -1570 16 -45 23 -86 63
-108 106 -19 36 -19 90 -19 2128 0 2038 0 2092 19 2128 22 42 62 82 106 105
27 15 187 16 1570 16 1477 1 1542 0 1581 -18z m1167 -766 c117 -55 187 -159
195 -287 6 -98 -10 -149 -86 -273 l-58 -94 -292 177 c-160 97 -291 181 -292
186 0 12 88 155 127 203 91 115 269 153 406 88z m-450 -584 c4 -4 -70 -135
-165 -292 -195 -322 -200 -337 -139 -391 29 -26 40 -29 73 -25 21 3 46 11 54
18 8 6 91 140 185 296 l171 284 46 -27 c112 -65 167 -102 165 -111 -2 -10
-1190 -1964 -1202 -1975 -5 -6 -564 324 -589 347 -2 2 119 205 269 452 150
246 416 684 592 973 175 289 325 535 333 547 l14 23 93 -57 c50 -31 95 -59
100 -62z m-1007 -2358 c2 -4 -91 -54 -205 -110 l-208 -101 -6 96 c-4 54 -7
161 -7 239 l0 142 212 -129 c117 -71 213 -132 214 -137z"/>
<path d="M569 4481 c-49 -49 -35 -128 28 -160 15 -8 191 -11 588 -11 485 0
570 2 595 15 37 19 50 43 50 93 0 33 -6 45 -31 66 l-31 26 -585 0 -585 0 -29
-29z"/>
<path d="M569 3741 c-31 -31 -39 -83 -19 -122 28 -51 -33 -49 1396 -49 l1326
0 34 34 c36 36 42 67 22 111 -26 58 49 55 -1398 55 l-1332 0 -29 -29z"/>
<path d="M569 3001 c-38 -39 -40 -97 -5 -138 l24 -28 1342 -3 1342 -2 34 34
c36 36 42 67 22 111 -26 58 49 55 -1398 55 l-1332 0 -29 -29z"/>
<path d="M595 798 c-62 -34 -74 -110 -26 -159 l29 -29 747 0 c493 0 753 3 766
10 24 13 49 61 49 94 0 14 -13 40 -29 58 l-29 33 -744 2 c-530 2 -749 -1 -763
-9z"/>
</g>
</svg>
