<?xml version="1.0" standalone="no"?>
<!DOCTYPE svg PUBLIC "-//W3C//DTD SVG 20010904//EN"
 "http://www.w3.org/TR/2001/REC-SVG-20010904/DTD/svg10.dtd">
<svg version="1.0" xmlns="http://www.w3.org/2000/svg"
 width="512.000000pt" height="512.000000pt" viewBox="0 0 512.000000 512.000000"
 preserveAspectRatio="xMidYMid meet">

<g transform="translate(0.000000,512.000000) scale(0.100000,-0.100000)"
fill="#000000" stroke="none">
<path d="M1707 4756 c-48 -18 -74 -41 -98 -88 -17 -34 -19 -62 -19 -323 l0
-285 -552 0 -553 0 -40 -23 c-97 -55 -121 -181 -50 -265 46 -54 77 -62 253
-62 l161 0 6 -42 c3 -24 68 -677 145 -1453 80 -814 146 -1435 155 -1470 40
-148 138 -266 276 -334 51 -24 110 -45 149 -51 88 -13 1952 -13 2040 0 39 6
98 27 149 51 138 68 236 186 276 334 9 35 75 657 155 1470 77 776 142 1429
145 1453 l6 42 161 0 c176 0 207 8 253 62 71 84 47 210 -50 265 l-40 23 -552
0 -553 0 0 285 c0 261 -2 289 -19 323 -24 47 -50 70 -98 88 -56 20 -1650 20
-1706 0z m1473 -521 l0 -175 -620 0 -620 0 0 175 0 175 620 0 620 0 0 -175z
m770 -545 c0 -11 -63 -655 -140 -1432 -157 -1575 -142 -1478 -226 -1525 l-39
-23 -985 0 -985 0 -39 23 c-84 47 -69 -50 -226 1524 -77 777 -140 1422 -140
1433 0 20 1 20 1390 20 1380 0 1390 0 1390 -20z"/>
<path d="M1676 3328 c-27 -15 -48 -40 -65 -72 l-26 -50 92 -1007 c101 -1111
94 -1063 169 -1110 102 -62 231 -14 265 100 15 52 -163 2008 -188 2064 -26 60
-74 91 -147 95 -49 2 -68 -2 -100 -20z"/>
<path d="M2474 3331 c-41 -25 -72 -66 -84 -112 -7 -25 -9 -379 -8 -1037 l3
-998 28 -43 c70 -106 224 -106 294 0 l28 43 3 998 c1 672 -1 1012 -8 1038 -12
46 -51 95 -91 115 -40 21 -127 19 -165 -4z"/>
<path d="M3265 3327 c-82 -47 -73 13 -175 -1105 -73 -810 -89 -1010 -80 -1037
37 -112 164 -157 264 -96 75 47 68 -1 169 1110 l92 1007 -26 50 c-46 90 -155
122 -244 71z"/>
</g>
</svg>
