<svg width="465" height="130" viewBox="0 0 465 130" fill="none" xmlns="http://www.w3.org/2000/svg">
<path d="M20.3182 33.2727H29.4091L33.2727 38.2045L38.3409 44.0227L46.1364 53.6364H35.9545L30.5 47.1136L27.2727 42.4773L20.3182 33.2727ZM46.4545 26.7273C46.4545 31.8485 45.4697 36.1894 43.5 39.75C41.5303 43.3106 38.8636 46.0152 35.5 47.8636C32.1515 49.7121 28.3939 50.6364 24.2273 50.6364C20.0455 50.6364 16.2803 49.7045 12.9318 47.8409C9.58333 45.9773 6.92424 43.2727 4.95455 39.7273C3 36.1667 2.02273 31.8333 2.02273 26.7273C2.02273 21.6061 3 17.2652 4.95455 13.7045C6.92424 10.1439 9.58333 7.43939 12.9318 5.59091C16.2803 3.74242 20.0455 2.81818 24.2273 2.81818C28.3939 2.81818 32.1515 3.74242 35.5 5.59091C38.8636 7.43939 41.5303 10.1439 43.5 13.7045C45.4697 17.2652 46.4545 21.6061 46.4545 26.7273ZM34.9545 26.7273C34.9545 23.697 34.5227 21.1364 33.6591 19.0455C32.8106 16.9545 31.5833 15.3712 29.9773 14.2955C28.3864 13.2197 26.4697 12.6818 24.2273 12.6818C22 12.6818 20.0833 13.2197 18.4773 14.2955C16.8712 15.3712 15.6364 16.9545 14.7727 19.0455C13.9242 21.1364 13.5 23.697 13.5 26.7273C13.5 29.7576 13.9242 32.3182 14.7727 34.4091C15.6364 36.5 16.8712 38.0833 18.4773 39.1591C20.0833 40.2348 22 40.7727 24.2273 40.7727C26.4697 40.7727 28.3864 40.2348 29.9773 39.1591C31.5833 38.0833 32.8106 36.5 33.6591 34.4091C34.5227 32.3182 34.9545 29.7576 34.9545 26.7273ZM76.608 34.9318V15.0909H87.6989V50H77.108V43.5H76.7443C75.9716 45.6364 74.6534 47.3333 72.7898 48.5909C70.9413 49.8333 68.7064 50.4545 66.0852 50.4545C63.7064 50.4545 61.6155 49.9091 59.8125 48.8182C58.0095 47.7273 56.608 46.2045 55.608 44.25C54.608 42.2803 54.1004 39.9773 54.0852 37.3409V15.0909H65.1989V35.1591C65.214 37.053 65.714 38.5455 66.6989 39.6364C67.6837 40.7273 69.0246 41.2727 70.7216 41.2727C71.8277 41.2727 72.8201 41.0303 73.6989 40.5455C74.5928 40.0455 75.2973 39.3258 75.8125 38.3864C76.3428 37.4318 76.608 36.2803 76.608 34.9318ZM112.091 50.6591C108.439 50.6591 105.288 49.9394 102.636 48.5C100 47.0455 97.9697 44.9773 96.5455 42.2955C95.1364 39.5985 94.4318 36.3939 94.4318 32.6818C94.4318 29.0758 95.1439 25.9242 96.5682 23.2273C97.9924 20.5152 100 18.4091 102.591 16.9091C105.182 15.3939 108.235 14.6364 111.75 14.6364C114.235 14.6364 116.508 15.0227 118.568 15.7955C120.629 16.5682 122.409 17.7121 123.909 19.2273C125.409 20.7424 126.576 22.6136 127.409 24.8409C128.242 27.053 128.659 29.5909 128.659 32.4545V35.2273H98.3182V28.7727H118.318C118.303 27.5909 118.023 26.5379 117.477 25.6136C116.932 24.6894 116.182 23.9697 115.227 23.4545C114.288 22.9242 113.205 22.6591 111.977 22.6591C110.735 22.6591 109.621 22.9394 108.636 23.5C107.652 24.0455 106.871 24.7955 106.295 25.75C105.72 26.6894 105.417 27.7576 105.386 28.9545V35.5227C105.386 36.947 105.667 38.197 106.227 39.2727C106.788 40.3333 107.583 41.1591 108.614 41.75C109.644 42.3409 110.871 42.6364 112.295 42.6364C113.28 42.6364 114.174 42.5 114.977 42.2273C115.78 41.9545 116.47 41.553 117.045 41.0227C117.621 40.4924 118.053 39.8409 118.341 39.0682L128.545 39.3636C128.121 41.6515 127.189 43.6439 125.75 45.3409C124.326 47.0227 122.455 48.3333 120.136 49.2727C117.818 50.197 115.136 50.6591 112.091 50.6591ZM135.335 50V15.0909H146.449V50H135.335ZM140.903 11.0227C139.343 11.0227 138.002 10.5076 136.881 9.47727C135.759 8.43182 135.199 7.17424 135.199 5.70454C135.199 4.25 135.759 3.00757 136.881 1.97727C138.002 0.931816 139.343 0.409088 140.903 0.409088C142.479 0.409088 143.82 0.931816 144.926 1.97727C146.047 3.00757 146.608 4.25 146.608 5.70454C146.608 7.17424 146.047 8.43182 144.926 9.47727C143.82 10.5076 142.479 11.0227 140.903 11.0227ZM154.523 50V15.0909H165.091V21.5H165.477C166.205 19.3788 167.432 17.7045 169.159 16.4773C170.886 15.25 172.947 14.6364 175.341 14.6364C177.765 14.6364 179.841 15.2576 181.568 16.5C183.295 17.7424 184.394 19.4091 184.864 21.5H185.227C185.879 19.4242 187.152 17.7652 189.045 16.5227C190.939 15.2652 193.174 14.6364 195.75 14.6364C199.053 14.6364 201.735 15.697 203.795 17.8182C205.856 19.9242 206.886 22.8182 206.886 26.5V50H195.773V29.0455C195.773 27.303 195.326 25.9773 194.432 25.0682C193.538 24.1439 192.379 23.6818 190.955 23.6818C189.424 23.6818 188.22 24.1818 187.341 25.1818C186.477 26.1667 186.045 27.4924 186.045 29.1591V50H175.364V28.9318C175.364 27.3106 174.924 26.0303 174.045 25.0909C173.167 24.1515 172.008 23.6818 170.568 23.6818C169.598 23.6818 168.742 23.9167 168 24.3864C167.258 24.8409 166.674 25.4924 166.25 26.3409C165.841 27.1894 165.636 28.1894 165.636 29.3409V50H154.523ZM224.614 50.5909C222.386 50.5909 220.409 50.2197 218.682 49.4773C216.97 48.7197 215.614 47.5833 214.614 46.0682C213.629 44.5379 213.136 42.6212 213.136 40.3182C213.136 38.3788 213.477 36.7424 214.159 35.4091C214.841 34.0758 215.78 32.9924 216.977 32.1591C218.174 31.3258 219.553 30.697 221.114 30.2727C222.674 29.8333 224.341 29.5379 226.114 29.3864C228.098 29.2045 229.697 29.0152 230.909 28.8182C232.121 28.6061 233 28.3106 233.545 27.9318C234.106 27.5379 234.386 26.9848 234.386 26.2727V26.1591C234.386 24.9924 233.985 24.0909 233.182 23.4545C232.379 22.8182 231.295 22.5 229.932 22.5C228.462 22.5 227.28 22.8182 226.386 23.4545C225.492 24.0909 224.924 24.9697 224.682 26.0909L214.432 25.7273C214.735 23.6061 215.515 21.7121 216.773 20.0455C218.045 18.3636 219.788 17.0455 222 16.0909C224.227 15.1212 226.902 14.6364 230.023 14.6364C232.25 14.6364 234.303 14.9015 236.182 15.4318C238.061 15.947 239.697 16.7045 241.091 17.7045C242.485 18.6894 243.561 19.9015 244.318 21.3409C245.091 22.7803 245.477 24.4242 245.477 26.2727V50H235.023V45.1364H234.75C234.129 46.3182 233.333 47.3182 232.364 48.1364C231.409 48.9545 230.28 49.5682 228.977 49.9773C227.689 50.3864 226.235 50.5909 224.614 50.5909ZM228.045 43.3182C229.242 43.3182 230.318 43.0758 231.273 42.5909C232.242 42.1061 233.015 41.4394 233.591 40.5909C234.167 39.7273 234.455 38.7273 234.455 37.5909V34.2727C234.136 34.4394 233.75 34.5909 233.295 34.7273C232.856 34.8636 232.371 34.9924 231.841 35.1136C231.311 35.2348 230.765 35.3409 230.205 35.4318C229.644 35.5227 229.106 35.6061 228.591 35.6818C227.545 35.8485 226.652 36.1061 225.909 36.4545C225.182 36.803 224.621 37.2576 224.227 37.8182C223.848 38.3636 223.659 39.0152 223.659 39.7727C223.659 40.9242 224.068 41.803 224.886 42.4091C225.72 43.0152 226.773 43.3182 228.045 43.3182ZM280.773 50.5C278.197 50.5 275.856 49.8333 273.75 48.5C271.644 47.1667 269.962 45.1667 268.705 42.5C267.447 39.8333 266.818 36.5227 266.818 32.5682C266.818 28.4621 267.47 25.0833 268.773 22.4318C270.076 19.7803 271.78 17.8182 273.886 16.5455C276.008 15.2727 278.288 14.6364 280.727 14.6364C282.561 14.6364 284.129 14.9545 285.432 15.5909C286.735 16.2121 287.811 17.0152 288.659 18C289.508 18.9848 290.152 20.0076 290.591 21.0682H290.818V3.45454H301.932V50H290.932V44.3409H290.591C290.121 45.4167 289.455 46.4242 288.591 47.3636C287.727 48.303 286.644 49.0606 285.341 49.6364C284.053 50.2121 282.53 50.5 280.773 50.5ZM284.636 41.8409C285.985 41.8409 287.136 41.4621 288.091 40.7045C289.045 39.9318 289.78 38.8485 290.295 37.4545C290.811 36.0606 291.068 34.4242 291.068 32.5455C291.068 30.6364 290.811 28.9924 290.295 27.6136C289.795 26.2348 289.061 25.1742 288.091 24.4318C287.136 23.6894 285.985 23.3182 284.636 23.3182C283.258 23.3182 282.091 23.697 281.136 24.4545C280.182 25.2121 279.455 26.2803 278.955 27.6591C278.47 29.0379 278.227 30.6667 278.227 32.5455C278.227 34.4242 278.477 36.0606 278.977 37.4545C279.477 38.8485 280.197 39.9318 281.136 40.7045C282.091 41.4621 283.258 41.8409 284.636 41.8409ZM326.278 50.6591C322.627 50.6591 319.475 49.9394 316.824 48.5C314.188 47.0455 312.157 44.9773 310.733 42.2955C309.324 39.5985 308.619 36.3939 308.619 32.6818C308.619 29.0758 309.331 25.9242 310.756 23.2273C312.18 20.5152 314.188 18.4091 316.778 16.9091C319.369 15.3939 322.422 14.6364 325.938 14.6364C328.422 14.6364 330.695 15.0227 332.756 15.7955C334.816 16.5682 336.597 17.7121 338.097 19.2273C339.597 20.7424 340.763 22.6136 341.597 24.8409C342.43 27.053 342.847 29.5909 342.847 32.4545V35.2273H312.506V28.7727H332.506C332.491 27.5909 332.21 26.5379 331.665 25.6136C331.119 24.6894 330.369 23.9697 329.415 23.4545C328.475 22.9242 327.392 22.6591 326.165 22.6591C324.922 22.6591 323.809 22.9394 322.824 23.5C321.839 24.0455 321.059 24.7955 320.483 25.75C319.907 26.6894 319.604 27.7576 319.574 28.9545V35.5227C319.574 36.947 319.854 38.197 320.415 39.2727C320.975 40.3333 321.771 41.1591 322.801 41.75C323.831 42.3409 325.059 42.6364 326.483 42.6364C327.468 42.6364 328.362 42.5 329.165 42.2273C329.968 41.9545 330.657 41.553 331.233 41.0227C331.809 40.4924 332.241 39.8409 332.528 39.0682L342.733 39.3636C342.309 41.6515 341.377 43.6439 339.938 45.3409C338.513 47.0227 336.642 48.3333 334.324 49.2727C332.006 50.197 329.324 50.6591 326.278 50.6591ZM33 91.75L22.7955 92.0227C22.6894 91.2955 22.4015 90.6515 21.9318 90.0909C21.4621 89.5152 20.8485 89.0682 20.0909 88.75C19.3485 88.4167 18.4848 88.25 17.5 88.25C16.2121 88.25 15.1136 88.5076 14.2045 89.0227C13.3106 89.5379 12.8712 90.2348 12.8864 91.1136C12.8712 91.7955 13.1439 92.3864 13.7045 92.8864C14.2803 93.3864 15.303 93.7879 16.7727 94.0909L23.5 95.3636C26.9848 96.0303 29.5758 97.1364 31.2727 98.6818C32.9849 100.227 33.8485 102.273 33.8636 104.818C33.8485 107.212 33.1364 109.295 31.7273 111.068C30.3333 112.841 28.4242 114.22 26 115.205C23.5758 116.174 20.803 116.659 17.6818 116.659C12.697 116.659 8.76515 115.636 5.88636 113.591C3.02273 111.53 1.38636 108.773 0.977273 105.318L11.9545 105.045C12.197 106.318 12.8258 107.288 13.8409 107.955C14.8561 108.621 16.1515 108.955 17.7273 108.955C19.1515 108.955 20.3106 108.689 21.2045 108.159C22.0985 107.629 22.553 106.924 22.5682 106.045C22.553 105.258 22.2045 104.629 21.5227 104.159C20.8409 103.674 19.7727 103.295 18.3182 103.023L12.2273 101.864C8.72727 101.227 6.12121 100.053 4.40909 98.3409C2.69697 96.6136 1.84848 94.4167 1.86364 91.75C1.84848 89.4167 2.4697 87.4242 3.72727 85.7727C4.98485 84.1061 6.77273 82.8333 9.09091 81.9545C11.4091 81.0758 14.1439 80.6364 17.2955 80.6364C22.0227 80.6364 25.75 81.6288 28.4773 83.6136C31.2045 85.5833 32.7121 88.2955 33 91.75ZM60.0398 81.0909V89.2727H38.017V81.0909H60.0398ZM42.6307 72.7273H53.7443V105.023C53.7443 105.705 53.8504 106.258 54.0625 106.682C54.2898 107.091 54.6155 107.386 55.0398 107.568C55.464 107.735 55.9716 107.818 56.5625 107.818C56.9867 107.818 57.4337 107.78 57.9034 107.705C58.3883 107.614 58.7519 107.538 58.9943 107.477L60.6761 115.5C60.1458 115.652 59.3958 115.841 58.4261 116.068C57.4716 116.295 56.3277 116.439 54.9943 116.5C52.3883 116.621 50.1534 116.318 48.2898 115.591C46.4413 114.848 45.0246 113.697 44.0398 112.136C43.0701 110.576 42.6004 108.614 42.6307 106.25V72.7273ZM82.6307 116.659C78.964 116.659 75.8125 115.909 73.1761 114.409C70.5549 112.894 68.5322 110.788 67.108 108.091C65.6989 105.379 64.9943 102.235 64.9943 98.6591C64.9943 95.0682 65.6989 91.9242 67.108 89.2273C68.5322 86.5152 70.5549 84.4091 73.1761 82.9091C75.8125 81.3939 78.964 80.6364 82.6307 80.6364C86.2973 80.6364 89.4413 81.3939 92.0625 82.9091C94.6989 84.4091 96.7216 86.5152 98.1307 89.2273C99.5549 91.9242 100.267 95.0682 100.267 98.6591C100.267 102.235 99.5549 105.379 98.1307 108.091C96.7216 110.788 94.6989 112.894 92.0625 114.409C89.4413 115.909 86.2973 116.659 82.6307 116.659ZM82.6989 108.273C84.0322 108.273 85.161 107.864 86.0852 107.045C87.0095 106.227 87.714 105.091 88.1989 103.636C88.6989 102.182 88.9489 100.5 88.9489 98.5909C88.9489 96.6515 88.6989 94.9545 88.1989 93.5C87.714 92.0455 87.0095 90.9091 86.0852 90.0909C85.161 89.2727 84.0322 88.8636 82.6989 88.8636C81.3201 88.8636 80.1534 89.2727 79.1989 90.0909C78.2595 90.9091 77.5398 92.0455 77.0398 93.5C76.5549 94.9545 76.3125 96.6515 76.3125 98.5909C76.3125 100.5 76.5549 102.182 77.0398 103.636C77.5398 105.091 78.2595 106.227 79.1989 107.045C80.1534 107.864 81.3201 108.273 82.6989 108.273ZM129.756 129.091V110.341H129.528C129.059 111.417 128.392 112.424 127.528 113.364C126.665 114.303 125.581 115.061 124.278 115.636C122.991 116.212 121.468 116.5 119.71 116.5C117.134 116.5 114.794 115.833 112.688 114.5C110.581 113.167 108.9 111.167 107.642 108.5C106.384 105.833 105.756 102.523 105.756 98.5682C105.756 94.4621 106.407 91.0833 107.71 88.4318C109.013 85.7803 110.718 83.8182 112.824 82.5455C114.945 81.2727 117.225 80.6364 119.665 80.6364C121.498 80.6364 123.066 80.9545 124.369 81.5909C125.672 82.2121 126.748 83.0152 127.597 84C128.445 84.9848 129.089 86.0076 129.528 87.0682H129.869V81.0909H140.869V129.091H129.756ZM123.574 107.841C124.922 107.841 126.074 107.462 127.028 106.705C127.983 105.932 128.718 104.848 129.233 103.455C129.748 102.061 130.006 100.424 130.006 98.5455C130.006 96.6364 129.748 94.9924 129.233 93.6136C128.733 92.2348 127.998 91.1742 127.028 90.4318C126.074 89.6894 124.922 89.3182 123.574 89.3182C122.195 89.3182 121.028 89.697 120.074 90.4545C119.119 91.2121 118.392 92.2803 117.892 93.6591C117.407 95.0379 117.165 96.6667 117.165 98.5455C117.165 100.424 117.415 102.061 117.915 103.455C118.415 104.848 119.134 105.932 120.074 106.705C121.028 107.462 122.195 107.841 123.574 107.841ZM171.42 100.932V81.0909H182.511V116H171.92V109.5H171.557C170.784 111.636 169.466 113.333 167.602 114.591C165.754 115.833 163.519 116.455 160.898 116.455C158.519 116.455 156.428 115.909 154.625 114.818C152.822 113.727 151.42 112.205 150.42 110.25C149.42 108.28 148.913 105.977 148.898 103.341V81.0909H160.011V101.159C160.027 103.053 160.527 104.545 161.511 105.636C162.496 106.727 163.837 107.273 165.534 107.273C166.64 107.273 167.633 107.03 168.511 106.545C169.405 106.045 170.11 105.326 170.625 104.386C171.155 103.432 171.42 102.28 171.42 100.932ZM206.903 116.659C203.252 116.659 200.1 115.939 197.449 114.5C194.813 113.045 192.782 110.977 191.358 108.295C189.949 105.598 189.244 102.394 189.244 98.6818C189.244 95.0758 189.956 91.9242 191.381 89.2273C192.805 86.5152 194.812 84.4091 197.403 82.9091C199.994 81.3939 203.047 80.6364 206.562 80.6364C209.047 80.6364 211.32 81.0227 213.381 81.7955C215.441 82.5682 217.222 83.7121 218.722 85.2273C220.222 86.7424 221.388 88.6136 222.222 90.8409C223.055 93.053 223.472 95.5909 223.472 98.4545V101.227H193.131V94.7727H213.131C213.116 93.5909 212.835 92.5379 212.29 91.6136C211.744 90.6894 210.994 89.9697 210.04 89.4545C209.1 88.9242 208.017 88.6591 206.79 88.6591C205.547 88.6591 204.434 88.9394 203.449 89.5C202.464 90.0455 201.684 90.7955 201.108 91.75C200.532 92.6894 200.229 93.7576 200.199 94.9545V101.523C200.199 102.947 200.479 104.197 201.04 105.273C201.6 106.333 202.396 107.159 203.426 107.75C204.456 108.341 205.684 108.636 207.108 108.636C208.093 108.636 208.987 108.5 209.79 108.227C210.593 107.955 211.282 107.553 211.858 107.023C212.434 106.492 212.866 105.841 213.153 105.068L223.358 105.364C222.934 107.652 222.002 109.644 220.562 111.341C219.138 113.023 217.267 114.333 214.949 115.273C212.631 116.197 209.949 116.659 206.903 116.659ZM284.511 69.4545V116H274.966L256.443 89.1364H256.148V116H244.898V69.4545H254.58L272.898 96.2727H273.284V69.4545H284.511ZM292.585 116V81.0909H303.699V116H292.585ZM298.153 77.0227C296.593 77.0227 295.252 76.5076 294.131 75.4773C293.009 74.4318 292.449 73.1742 292.449 71.7045C292.449 70.25 293.009 69.0076 294.131 67.9773C295.252 66.9318 296.593 66.4091 298.153 66.4091C299.729 66.4091 301.07 66.9318 302.176 67.9773C303.297 69.0076 303.858 70.25 303.858 71.7045C303.858 73.1742 303.297 74.4318 302.176 75.4773C301.07 76.5076 299.729 77.0227 298.153 77.0227ZM321.795 106.841L321.841 93.5909H323.386L333.205 81.0909H345.795L331.205 99H328.273L321.795 106.841ZM311.773 116V69.4545H322.886V116H311.773ZM333.455 116L324.318 101.5L331.636 93.6136L346.295 116H333.455ZM365.653 116.659C362.002 116.659 358.85 115.939 356.199 114.5C353.563 113.045 351.532 110.977 350.108 108.295C348.699 105.598 347.994 102.394 347.994 98.6818C347.994 95.0758 348.706 91.9242 350.131 89.2273C351.555 86.5152 353.562 84.4091 356.153 82.9091C358.744 81.3939 361.797 80.6364 365.312 80.6364C367.797 80.6364 370.07 81.0227 372.131 81.7955C374.191 82.5682 375.972 83.7121 377.472 85.2273C378.972 86.7424 380.138 88.6136 380.972 90.8409C381.805 93.053 382.222 95.5909 382.222 98.4545V101.227H351.881V94.7727H371.881C371.866 93.5909 371.585 92.5379 371.04 91.6136C370.494 90.6894 369.744 89.9697 368.79 89.4545C367.85 88.9242 366.767 88.6591 365.54 88.6591C364.297 88.6591 363.184 88.9394 362.199 89.5C361.214 90.0455 360.434 90.7955 359.858 91.75C359.282 92.6894 358.979 93.7576 358.949 94.9545V101.523C358.949 102.947 359.229 104.197 359.79 105.273C360.35 106.333 361.146 107.159 362.176 107.75C363.206 108.341 364.434 108.636 365.858 108.636C366.843 108.636 367.737 108.5 368.54 108.227C369.343 107.955 370.032 107.553 370.608 107.023C371.184 106.492 371.616 105.841 371.903 105.068L382.108 105.364C381.684 107.652 380.752 109.644 379.312 111.341C377.888 113.023 376.017 114.333 373.699 115.273C371.381 116.197 368.699 116.659 365.653 116.659ZM400.125 120.48H464.125V56.48H400.125V120.48Z" fill="#1F1F1F"/>
</svg>
