<?xml version="1.0" standalone="no"?>
<!DOCTYPE svg PUBLIC "-//W3C//DTD SVG 20010904//EN"
 "http://www.w3.org/TR/2001/REC-SVG-20010904/DTD/svg10.dtd">
<svg version="1.0" xmlns="http://www.w3.org/2000/svg"
 width="512.000000pt" height="512.000000pt" viewBox="0 0 512.000000 512.000000"
 preserveAspectRatio="xMidYMid meet">

<g transform="translate(0.000000,512.000000) scale(0.100000,-0.100000)"
fill="#000000" stroke="none">
<path d="M1035 5104 c-55 -20 -121 -88 -140 -143 -13 -40 -15 -309 -15 -2399
0 -1820 3 -2364 12 -2396 16 -55 99 -138 154 -154 31 -9 298 -12 1095 -12
l1054 -1 412 418 412 418 -55 56 -55 56 -314 -316 -315 -316 0 338 0 338 25
24 24 25 248 0 248 0 -80 80 -80 80 -178 0 c-191 0 -218 -5 -285 -57 -19 -14
-45 -49 -58 -77 l-24 -51 0 -427 0 -428 -1015 0 -1016 0 -24 25 -25 24 0 2351
0 2351 25 24 24 25 1471 0 1471 0 24 -25 25 -24 0 -1395 0 -1395 28 -15 c16
-8 52 -33 80 -56 l52 -40 0 1451 c0 1093 -3 1461 -12 1491 -6 22 -31 62 -55
88 -78 87 56 80 -1617 79 -1273 0 -1487 -2 -1521 -15z"/>
<path d="M2410 4314 c-454 -56 -854 -331 -1057 -729 -63 -124 -95 -211 -125
-346 -33 -149 -33 -407 1 -558 120 -544 533 -948 1079 -1058 120 -24 384 -24
504 0 227 46 463 158 622 296 l49 43 59 -59 59 -60 -21 -64 c-17 -49 -21 -79
-17 -127 9 -117 18 -129 506 -640 514 -537 502 -527 646 -527 100 1 162 26
228 93 67 69 92 129 92 227 0 137 7 128 -505 664 -395 413 -460 477 -508 498
-78 36 -161 41 -241 13 l-64 -21 -59 59 -59 59 60 84 c113 155 200 357 238
547 24 119 24 384 0 502 -109 547 -520 965 -1062 1082 -88 19 -343 32 -425 22z
m410 -183 c549 -125 940 -613 940 -1171 0 -566 -399 -1055 -960 -1176 -118
-26 -362 -26 -480 0 -474 102 -834 462 -936 936 -26 118 -26 362 0 480 77 358
306 660 623 822 136 70 250 106 418 132 68 10 312 -4 395 -23z m1132 -2309
c46 -21 885 -897 910 -951 38 -79 7 -169 -72 -208 -53 -27 -92 -29 -142 -5
-46 21 -885 898 -910 951 -24 49 -22 88 5 141 16 33 34 51 67 68 53 26 92 28
142 4z"/>
<path d="M1825 3675 c-24 -23 -25 -31 -25 -135 0 -104 1 -112 25 -135 15 -16
36 -25 55 -25 51 0 80 38 80 105 l0 55 55 0 c67 0 105 29 105 80 0 19 -9 40
-25 55 -23 24 -31 25 -135 25 -104 0 -112 -1 -135 -25z"/>
<path d="M3025 3675 c-16 -15 -25 -36 -25 -55 0 -51 38 -80 105 -80 l55 0 0
-55 c0 -67 29 -105 80 -105 19 0 40 9 55 25 24 23 25 31 25 135 0 104 -1 112
-25 135 -23 24 -31 25 -135 25 -104 0 -112 -1 -135 -25z"/>
<path d="M2505 3575 c-22 -21 -25 -33 -25 -95 0 -62 3 -74 25 -95 15 -16 36
-25 55 -25 19 0 40 9 55 25 22 21 25 33 25 95 0 62 -3 74 -25 95 -15 16 -36
25 -55 25 -19 0 -40 -9 -55 -25z"/>
<path d="M2480 3187 c-49 -16 -133 -102 -148 -153 -28 -94 -8 -169 63 -239 51
-52 102 -75 165 -75 124 0 240 116 240 240 0 63 -23 114 -75 165 -70 71 -152
91 -245 62z m135 -172 c16 -15 25 -36 25 -55 0 -19 -9 -40 -25 -55 -49 -50
-135 -15 -135 55 0 41 39 80 80 80 19 0 40 -9 55 -25z"/>
<path d="M1945 3015 c-16 -15 -25 -36 -25 -55 0 -19 9 -40 25 -55 21 -22 33
-25 95 -25 62 0 74 3 95 25 16 15 25 36 25 55 0 19 -9 40 -25 55 -21 22 -33
25 -95 25 -62 0 -74 -3 -95 -25z"/>
<path d="M2985 3015 c-16 -15 -25 -36 -25 -55 0 -19 9 -40 25 -55 21 -22 33
-25 95 -25 62 0 74 3 95 25 16 15 25 36 25 55 0 19 -9 40 -25 55 -21 22 -33
25 -95 25 -62 0 -74 -3 -95 -25z"/>
<path d="M2505 2535 c-22 -21 -25 -33 -25 -95 0 -62 3 -74 25 -95 15 -16 36
-25 55 -25 19 0 40 9 55 25 22 21 25 33 25 95 0 62 -3 74 -25 95 -15 16 -36
25 -55 25 -19 0 -40 -9 -55 -25z"/>
<path d="M1825 2515 c-24 -23 -25 -31 -25 -135 0 -104 1 -112 25 -135 23 -24
31 -25 135 -25 104 0 112 1 135 25 16 15 25 36 25 55 0 51 -38 80 -105 80
l-55 0 0 55 c0 67 -29 105 -80 105 -19 0 -40 -9 -55 -25z"/>
<path d="M3185 2515 c-21 -20 -25 -34 -25 -80 l0 -55 -55 0 c-46 0 -60 -4 -80
-25 -33 -32 -33 -78 0 -110 23 -24 31 -25 135 -25 104 0 112 1 135 25 24 23
25 31 25 135 0 104 -1 112 -25 135 -15 16 -36 25 -55 25 -19 0 -40 -9 -55 -25z"/>
</g>
</svg>
