<?xml version="1.0" standalone="no"?>
<!DOCTYPE svg PUBLIC "-//W3C//DTD SVG 20010904//EN"
 "http://www.w3.org/TR/2001/REC-SVG-20010904/DTD/svg10.dtd">
<svg version="1.0" xmlns="http://www.w3.org/2000/svg"
 width="1024.000000pt" height="1024.000000pt" viewBox="0 0 1024.000000 1024.000000"
 preserveAspectRatio="xMidYMid meet">

<g transform="translate(0.000000,1024.000000) scale(0.100000,-0.100000)"
fill="#000000" stroke="none">
<path d="M4432 6950 c-12 -5 -37 -20 -56 -32 -30 -21 -532 -502 -1026 -983
-102 -99 -313 -304 -470 -455 -157 -151 -290 -283 -297 -294 -7 -12 -12 -41
-12 -66 0 -25 5 -54 12 -66 7 -11 122 -126 257 -254 255 -244 822 -788 1213
-1165 125 -121 251 -239 280 -263 81 -66 113 -72 402 -72 249 0 252 0 302 25
62 31 88 76 80 139 -5 35 -18 52 -94 126 -48 47 -333 324 -632 615 -299 292
-550 534 -557 538 -8 4 -14 12 -14 17 0 6 722 10 1943 10 1715 0 1945 2 1964
15 37 26 45 97 41 370 -3 270 -8 294 -57 314 -18 8 -589 10 -1944 9 -1054 -2
-1917 -1 -1917 2 0 3 271 276 603 607 331 331 613 612 625 626 53 56 47 154
-13 214 l-33 33 -288 -1 c-159 0 -299 -4 -312 -9z"/>
</g>
</svg>
